<mxfile host="app.diagrams.net" agent="Mozilla/5.0 (Windows NT 10.0; Win64; x64) AppleWebKit/537.36 (KHTML, like Gecko) Chrome/141.0.0.0 Safari/537.36" version="28.2.5">
  <diagram name="Trang-1" id="mToT4WDd83Ba0kc8yEaT">
    <mxGraphModel dx="1226" dy="661" grid="0" gridSize="10" guides="1" tooltips="1" connect="1" arrows="1" fold="1" page="1" pageScale="1" pageWidth="827" pageHeight="1169" background="#ffffff" math="0" shadow="0">
      <root>
        <mxCell id="0" />
        <mxCell id="1" parent="0" />
        <mxCell id="8S5W4qqkNXLUCZN-5G2f-1" value="" style="rounded=0;whiteSpace=wrap;html=1;fillColor=#002B80;fontColor=#ffffff;strokeColor=#001DBC;" parent="1" vertex="1">
          <mxGeometry x="80" y="110" width="220" height="180" as="geometry" />
        </mxCell>
        <mxCell id="8S5W4qqkNXLUCZN-5G2f-2" value="" style="shape=actor;whiteSpace=wrap;html=1;strokeColor=light-dark(#000000,#FFFFFF);" parent="1" vertex="1">
          <mxGeometry x="167" y="126" width="40" height="51" as="geometry" />
        </mxCell>
        <mxCell id="8S5W4qqkNXLUCZN-5G2f-3" value="&lt;span style=&quot;font-size: 18px;&quot;&gt;&lt;b&gt;Người mua&lt;/b&gt;&lt;/span&gt;" style="text;html=1;align=center;verticalAlign=middle;whiteSpace=wrap;rounded=0;fontColor=#FFFFFF;" parent="1" vertex="1">
          <mxGeometry x="139" y="177" width="102" height="30" as="geometry" />
        </mxCell>
        <mxCell id="8S5W4qqkNXLUCZN-5G2f-4" value="&lt;span style=&quot;font-size: 16px;&quot;&gt;Đặt hàng, tìm kiếm sản phẩm, theo dõi đơn hàng, gửi phản hồi&lt;/span&gt;" style="text;html=1;align=center;verticalAlign=middle;whiteSpace=wrap;rounded=0;fontColor=#FFFFFF;" parent="1" vertex="1">
          <mxGeometry x="80" y="223" width="225" height="60" as="geometry" />
        </mxCell>
        <mxCell id="8S5W4qqkNXLUCZN-5G2f-5" value="" style="rounded=0;whiteSpace=wrap;html=1;fillColor=#002B80;fontColor=#ffffff;strokeColor=#00106D;" parent="1" vertex="1">
          <mxGeometry x="577" y="534" width="169" height="151" as="geometry" />
        </mxCell>
        <mxCell id="8S5W4qqkNXLUCZN-5G2f-6" value="" style="shape=actor;whiteSpace=wrap;html=1;strokeColor=light-dark(#000000,#FFFFFF);" parent="1" vertex="1">
          <mxGeometry x="641.5" y="544" width="40" height="50" as="geometry" />
        </mxCell>
        <mxCell id="8S5W4qqkNXLUCZN-5G2f-7" value="&lt;span style=&quot;font-size: 16px;&quot;&gt;Quản trị viên có đầy đủ chức năng hệ thống&lt;/span&gt;" style="text;html=1;align=center;verticalAlign=middle;whiteSpace=wrap;rounded=0;fontColor=#FFFFFF;" parent="1" vertex="1">
          <mxGeometry x="577" y="624" width="170.25" height="53" as="geometry" />
        </mxCell>
        <mxCell id="8S5W4qqkNXLUCZN-5G2f-8" value="&lt;font color=&quot;#ffffff&quot;&gt;&lt;span style=&quot;font-size: 17px;&quot;&gt;&lt;b&gt;Quản trị&lt;/b&gt;&lt;/span&gt;&lt;/font&gt;" style="text;html=1;align=center;verticalAlign=middle;whiteSpace=wrap;rounded=0;" parent="1" vertex="1">
          <mxGeometry x="622.12" y="600" width="80" height="30" as="geometry" />
        </mxCell>
        <mxCell id="8S5W4qqkNXLUCZN-5G2f-10" value="&lt;span style=&quot;font-size: 16px;&quot;&gt;&lt;font style=&quot;color: light-dark(rgb(255, 255, 255), rgb(255, 255, 255));&quot;&gt;&amp;nbsp;WebQuanAo&lt;/font&gt;&lt;/span&gt;" style="rounded=0;whiteSpace=wrap;html=1;fillColor=#3333FF;" parent="1" vertex="1">
          <mxGeometry x="350" y="380" width="170" height="40" as="geometry" />
        </mxCell>
        <mxCell id="8S5W4qqkNXLUCZN-5G2f-11" value="Cổng thanh toán" style="whiteSpace=wrap;html=1;strokeColor=#23445d;fillColor=#B3B3B3;fontColor=#FFFFFF;" parent="1" vertex="1">
          <mxGeometry x="95" y="382.5" width="120" height="35" as="geometry" />
        </mxCell>
        <mxCell id="8S5W4qqkNXLUCZN-5G2f-15" value="" style="endArrow=classic;html=1;rounded=0;entryX=0;entryY=0.5;entryDx=0;entryDy=0;exitX=1;exitY=0.5;exitDx=0;exitDy=0;" parent="1" source="8S5W4qqkNXLUCZN-5G2f-11" target="8S5W4qqkNXLUCZN-5G2f-10" edge="1">
          <mxGeometry width="50" height="50" relative="1" as="geometry">
            <mxPoint x="390" y="340" as="sourcePoint" />
            <mxPoint x="440" y="290" as="targetPoint" />
          </mxGeometry>
        </mxCell>
        <mxCell id="8S5W4qqkNXLUCZN-5G2f-17" value="Ủy quyền thanh toán" style="text;html=1;align=center;verticalAlign=middle;whiteSpace=wrap;rounded=0;" parent="1" vertex="1">
          <mxGeometry x="250" y="500" width="100" height="49" as="geometry" />
        </mxCell>
        <mxCell id="8S5W4qqkNXLUCZN-5G2f-18" value="" style="endArrow=classic;html=1;rounded=0;exitX=0.546;exitY=1.045;exitDx=0;exitDy=0;exitPerimeter=0;entryX=0.5;entryY=1;entryDx=0;entryDy=0;curved=1;" parent="1" source="8S5W4qqkNXLUCZN-5G2f-10" target="8S5W4qqkNXLUCZN-5G2f-11" edge="1">
          <mxGeometry width="50" height="50" relative="1" as="geometry">
            <mxPoint x="390" y="360" as="sourcePoint" />
            <mxPoint x="140" y="420" as="targetPoint" />
            <Array as="points">
              <mxPoint x="320" y="580" />
            </Array>
          </mxGeometry>
        </mxCell>
        <mxCell id="8S5W4qqkNXLUCZN-5G2f-19" value="Trả lại thông tin thanh toán" style="text;html=1;align=center;verticalAlign=middle;whiteSpace=wrap;rounded=0;" parent="1" vertex="1">
          <mxGeometry x="215" y="410" width="129" height="30" as="geometry" />
        </mxCell>
        <mxCell id="8S5W4qqkNXLUCZN-5G2f-22" value="&lt;p data-pm-slice=&quot;1 1 []&quot;&gt;Đặt hàng, tìm kiếm sản phẩm, theo dõi đơn hàng, gửi phản hồi&lt;/p&gt;" style="text;html=1;align=center;verticalAlign=middle;whiteSpace=wrap;rounded=0;" parent="1" vertex="1">
          <mxGeometry x="187" y="331" width="120" height="30" as="geometry" />
        </mxCell>
        <mxCell id="8S5W4qqkNXLUCZN-5G2f-23" value="&lt;div&gt;Quản lí người dùng&lt;/div&gt;Quản lí sản phẩm&lt;div&gt;Quản lí danh mục&lt;/div&gt;" style="text;html=1;align=center;verticalAlign=middle;whiteSpace=wrap;rounded=0;" parent="1" vertex="1">
          <mxGeometry x="487" y="470" width="116" height="30" as="geometry" />
        </mxCell>
        <mxCell id="NIt2zrW102_OlSJnvF26-3" value="Dịch vụ Email" style="whiteSpace=wrap;html=1;strokeColor=#23445d;fillColor=#B3B3B3;fontColor=#FFFFFF;" vertex="1" parent="1">
          <mxGeometry x="633" y="296" width="120" height="35" as="geometry" />
        </mxCell>
        <mxCell id="NIt2zrW102_OlSJnvF26-4" value="" style="endArrow=none;html=1;rounded=0;entryX=0.75;entryY=1;entryDx=0;entryDy=0;" edge="1" parent="1" target="8S5W4qqkNXLUCZN-5G2f-10">
          <mxGeometry width="50" height="50" relative="1" as="geometry">
            <mxPoint x="388" y="418" as="sourcePoint" />
            <mxPoint x="438" y="368" as="targetPoint" />
          </mxGeometry>
        </mxCell>
        <mxCell id="NIt2zrW102_OlSJnvF26-7" value="" style="endArrow=classic;html=1;rounded=0;entryX=0.547;entryY=1.005;entryDx=0;entryDy=0;exitX=1;exitY=0.5;exitDx=0;exitDy=0;entryPerimeter=0;curved=1;" edge="1" parent="1" source="8S5W4qqkNXLUCZN-5G2f-10" target="NIt2zrW102_OlSJnvF26-3">
          <mxGeometry width="50" height="50" relative="1" as="geometry">
            <mxPoint x="388" y="518" as="sourcePoint" />
            <mxPoint x="438" y="468" as="targetPoint" />
            <Array as="points">
              <mxPoint x="577" y="395" />
              <mxPoint x="627" y="379" />
              <mxPoint x="669" y="359" />
            </Array>
          </mxGeometry>
        </mxCell>
        <mxCell id="NIt2zrW102_OlSJnvF26-10" value="" style="endArrow=classic;html=1;rounded=0;entryX=0.396;entryY=0.046;entryDx=0;entryDy=0;entryPerimeter=0;exitX=0.5;exitY=1;exitDx=0;exitDy=0;curved=1;" edge="1" parent="1" source="8S5W4qqkNXLUCZN-5G2f-1" target="8S5W4qqkNXLUCZN-5G2f-10">
          <mxGeometry width="50" height="50" relative="1" as="geometry">
            <mxPoint x="368" y="378" as="sourcePoint" />
            <mxPoint x="418" y="328" as="targetPoint" />
            <Array as="points">
              <mxPoint x="251" y="326" />
              <mxPoint x="313" y="351" />
            </Array>
          </mxGeometry>
        </mxCell>
        <mxCell id="NIt2zrW102_OlSJnvF26-12" value="Gửi email xác nhận" style="text;html=1;align=center;verticalAlign=middle;whiteSpace=wrap;rounded=0;" vertex="1" parent="1">
          <mxGeometry x="507" y="211" width="60" height="30" as="geometry" />
        </mxCell>
        <mxCell id="NIt2zrW102_OlSJnvF26-15" value="" style="endArrow=classic;html=1;rounded=0;entryX=0.75;entryY=0;entryDx=0;entryDy=0;exitX=1;exitY=0.5;exitDx=0;exitDy=0;curved=1;" edge="1" parent="1" source="8S5W4qqkNXLUCZN-5G2f-1" target="8S5W4qqkNXLUCZN-5G2f-10">
          <mxGeometry width="50" height="50" relative="1" as="geometry">
            <mxPoint x="415" y="294" as="sourcePoint" />
            <mxPoint x="418" y="328" as="targetPoint" />
            <Array as="points">
              <mxPoint x="403" y="279" />
            </Array>
          </mxGeometry>
        </mxCell>
        <mxCell id="NIt2zrW102_OlSJnvF26-16" value="" style="endArrow=classic;html=1;rounded=0;entryX=1;entryY=0.388;entryDx=0;entryDy=0;entryPerimeter=0;exitX=0.5;exitY=0;exitDx=0;exitDy=0;curved=1;" edge="1" parent="1" source="NIt2zrW102_OlSJnvF26-3" target="8S5W4qqkNXLUCZN-5G2f-1">
          <mxGeometry width="50" height="50" relative="1" as="geometry">
            <mxPoint x="368" y="378" as="sourcePoint" />
            <mxPoint x="418" y="328" as="targetPoint" />
            <Array as="points">
              <mxPoint x="633" y="247" />
              <mxPoint x="552" y="204" />
              <mxPoint x="430" y="182" />
            </Array>
          </mxGeometry>
        </mxCell>
        <mxCell id="NIt2zrW102_OlSJnvF26-19" value="Yêu cầu gửi email xác thực" style="text;html=1;align=center;verticalAlign=middle;whiteSpace=wrap;rounded=0;" vertex="1" parent="1">
          <mxGeometry x="590.5" y="385" width="107.5" height="30" as="geometry" />
        </mxCell>
        <mxCell id="NIt2zrW102_OlSJnvF26-20" value="" style="endArrow=classic;html=1;rounded=0;entryX=0.75;entryY=1;entryDx=0;entryDy=0;exitX=0.5;exitY=0;exitDx=0;exitDy=0;" edge="1" parent="1" source="8S5W4qqkNXLUCZN-5G2f-5" target="8S5W4qqkNXLUCZN-5G2f-10">
          <mxGeometry width="50" height="50" relative="1" as="geometry">
            <mxPoint x="423" y="383" as="sourcePoint" />
            <mxPoint x="473" y="333" as="targetPoint" />
          </mxGeometry>
        </mxCell>
        <mxCell id="NIt2zrW102_OlSJnvF26-21" value="Gửi mã OTP" style="text;html=1;align=center;verticalAlign=middle;whiteSpace=wrap;rounded=0;" vertex="1" parent="1">
          <mxGeometry x="398" y="273" width="60" height="30" as="geometry" />
        </mxCell>
      </root>
    </mxGraphModel>
  </diagram>
</mxfile>
